<svg width="48" height="48" viewBox="0 0 48 48" fill="none" xmlns="http://www.w3.org/2000/svg">
  <!-- Background circle -->
  <circle cx="24" cy="24" r="22" fill="#4F46E5" stroke="#312E81" stroke-width="2"/>
  
  <!-- Mobile device -->
  <rect x="15" y="12" width="18" height="24" rx="2" fill="white"/>
  <rect x="16" y="14" width="16" height="18" rx="1" fill="#E5E7EB"/>
  
  <!-- Screen content lines -->
  <rect x="18" y="16" width="12" height="2" rx="1" fill="#9CA3AF"/>
  <rect x="18" y="19" width="8" height="2" rx="1" fill="#9CA3AF"/>
  <rect x="18" y="22" width="10" height="2" rx="1" fill="#9CA3AF"/>
  
  <!-- Web/Globe icon -->
  <circle cx="24" cy="26" r="3" fill="none" stroke="#4F46E5" stroke-width="1"/>
  <path d="M21 26 C21 24, 22.5 23, 24 23 C25.5 23, 27 24, 27 26" stroke="#4F46E5" stroke-width="1" fill="none"/>
  <path d="M21 26 C21 28, 22.5 29, 24 29 C25.5 29, 27 28, 27 26" stroke="#4F46E5" stroke-width="1" fill="none"/>
  <line x1="24" y1="23" x2="24" y2="29" stroke="#4F46E5" stroke-width="1"/>
  
  <!-- Home button -->
  <circle cx="24" cy="33" r="1.5" fill="#9CA3AF"/>
</svg>